<?xml version="1.0" standalone="no"?><!DOCTYPE svg PUBLIC "-//W3C//DTD SVG 1.1//EN" "http://www.w3.org/Graphics/SVG/1.1/DTD/svg11.dtd"><svg t="1685536230391" class="icon" viewBox="0 0 1024 1024" version="1.1" xmlns="http://www.w3.org/2000/svg" p-id="3701" xmlns:xlink="http://www.w3.org/1999/xlink" width="200" height="200"><path d="M569.5616 511.9616c-9.9712 0-20.032 10.048-20.032 20.0192 0 10.112 10.0608 20.032 20.032 20.032 15.1424 0 25.0624-9.92 25.0624-20.032C594.624 522.0096 584.704 511.9616 569.5616 511.9616z" p-id="3702" fill="#707070"></path><path d="M364.3264 366.7328c-15.0016 0-30.144 9.92-30.144 24.9856 0 15.0016 15.1424 25.0624 30.144 25.0624 15.0016 0 24.9984-10.0608 24.9984-25.0624C389.3248 376.6528 379.3408 366.7328 364.3264 366.7328z" p-id="3703" fill="#707070"></path><path d="M504.448 416.7808c15.0784 0 25.0624-10.0608 25.0624-25.0624 0-15.0656-9.984-24.9856-25.0624-24.9856-15.0016 0-30.0672 9.92-30.0672 24.9856C474.3936 406.7328 489.4464 416.7808 504.448 416.7808z" p-id="3704" fill="#707070"></path><path d="M679.6928 511.9616c-9.8944 0-19.8912 10.048-19.8912 20.0192 0 10.112 9.984 20.032 19.8912 20.032 15.0016 0 25.0624-9.92 25.0624-20.032C704.7552 522.0096 694.6944 511.9616 679.6928 511.9616z" p-id="3705" fill="#707070"></path><path d="M512 51.2C257.5104 51.2 51.2 257.5104 51.2 512s206.3104 460.8 460.8 460.8c254.4896 0 460.8-206.3104 460.8-460.8S766.4896 51.2 512 51.2zM429.376 622.2336c-24.9984 0-45.0816-5.0944-70.1312-10.048l-69.9904 35.0976 20.0192-60.224c-50.1248-35.0208-80.1152-80.1792-80.1152-135.168C229.1584 356.6208 319.3088 281.6 429.376 281.6c98.4448 0 184.6912 59.9424 202.0096 140.608-6.3744-0.704-12.7872-1.1904-19.2768-1.1904-95.104 0-170.2272 70.9888-170.2272 158.464 0 14.5408 2.2656 28.5696 6.1824 41.9584C441.8816 621.9264 435.6608 622.2336 429.376 622.2336zM724.7104 692.3648 739.7632 742.4l-54.912-30.0672c-20.032 5.0176-40.1408 10.048-60.0704 10.048-95.2576 0-170.2912-65.1136-170.2912-145.2928 0-80.0512 75.0336-145.2928 170.2912-145.2928 89.9584 0 170.0608 65.2544 170.0608 145.2928C794.8416 622.2336 764.9024 662.208 724.7104 692.3648z" p-id="3706" fill="#707070"></path></svg>